<?xml version="1.0" encoding="utf-8"?>
<!-- Generator: Adobe Illustrator 25.2.1, SVG Export Plug-In . SVG Version: 6.00 Build 0)  -->
<svg version="1.1" id="Layer_1" xmlns="http://www.w3.org/2000/svg" xmlns:xlink="http://www.w3.org/1999/xlink" x="0px" y="0px"
	 viewBox="0 0 512 270" style="enable-background:new 0 0 512 270;" xml:space="preserve">
<style type="text/css">
	.st0{fill:#1C4478;}
	.st1{fill:#12315A;}
</style>
<path class="st0" d="M302.7,1c12.4,0,24.6,0,37,0c1,0,7.8,15.8,8.3,16.7c3,6.4,0,0,3,6.4c4.1,8.7,8,17.4,12.2,26
	c2.2,4.6,4.4,9.3,6.6,13.9c4.8,10.1,9.4,20.3,14.2,30.4c2.4,5,4.6,10,7.1,14.9c3.7,7.6,7.2,15.3,10.8,23c2,4.4,4.1,8.8,6.1,13.1
	c2,4.2,4.2,8.4,6.1,12.7c2.5,5.8,5.5,11.5,8.1,17.2c1.8,3.9,3.6,7.7,5.4,11.5c0.4,0.9,0.4,1.7,0,2.6c-2.9,6.2-5.9,12.5-8.8,18.7
	c-5.3,11.4-10.5,22.8-15.8,34.3c-2.7,5.7-5.3,11.4-8,17.2c-1,2.2-2,4.3-3,6.5c-0.5,1.1-1.1,2.1-2,2.8c-0.9,0.7-1.7,0.6-2.2-0.5
	c-5.1-10.8-10-21.7-15.3-32.4c-3.3-6.8-6.4-13.7-9.6-20.5c-5.2-11-10.3-22.1-15.5-33.1c-3.7-7.9-7.4-15.7-11.1-23.6
	c-5.3-11.3-10.5-22.5-15.8-33.8c-2.8-6-5.7-12-8.5-18c-4.9-10.5-9.8-20.9-14.6-31.4c-2.5-5.4-5-10.7-7.5-16
	c-3.6-7.6-7.2-15.1-10.7-22.7c-3.4-7.3-6.7-14.6-10.3-21.9c-1.5-3.1-2.8-6.3-4.3-9.4c-0.9-1.8-0.9-5,1-5C277.9,0.7,290.4,1,302.7,1
	C302.7-0.1,302.7,1,302.7,1z"/>
<path class="st0" d="M0,268.4c0-12.1,0-24.1,0-36.2c0-76.5,0-153,0-229.6c0-2.1-0.2-1.9,2-1.9c20.5,0,41,0,61.5,0
	c2.4,0,2.5,0.1,2.5,2.5c0,24.7,0,49.4,0,74.1c0,62.5,0,125,0,187.5c0,1.2-0.2,2.4-0.2,3.6C43.8,268.4,21.9,268.4,0,268.4z"/>
<path class="st0" d="M158.5,269c-0.4-0.5-0.2-1-0.2-1.5c0-88.3,0-176.6,0-264.9c0-1.2,0.3-1.6,1.6-1.6c20,0,33.4,0,53.5,0
	c0.9,0,8,0,8.9,0c0.5,0,1.2,0.6,1.2,1s0,0.8,0,1.2c0,88.1,0,176.2,0,264.2c0,0.5,0,1.1,0,1.6C201.7,269,180.1,269,158.5,269z"/>
<path class="st0" d="M413.8,1c0.4-0.5,3.9-0.2,4.2-0.2c11.3-0.2,21.5,0.2,32.8-0.1c9.1-0.2,17.7,0.3,26.7,0c7.3-0.3,14.7,0.3,22.1,0
	c3.7-0.2,7.4,0,11.2,0c0.4,0,1,0.5,1.1,1c0.2,0.5-0.4,0.8-0.7,1.1c-3.9,3.1-7.1,6.9-10.4,10.6c-2.5,2.7-4.7,5.8-6.9,8.8
	c-2.9,4-5.8,8.1-8.5,12.3c-3.8,5.9-7.3,12-10.6,18.2c-4.1,7.8-7.7,15.7-10.6,24c-0.3,0.7-0.4,1.5-0.6,2.2c-0.1,0.3-0.2,0.8-0.6,0.8
	c-0.5,0-0.5-0.5-0.5-0.8c-0.6-2.5-1.3-4.9-2.2-7.3c-2.4-6.6-5.1-13-8.3-19.2c-3.2-6.3-6.7-12.5-10.5-18.5c-3-4.7-6.2-9.3-9.6-13.7
	c-3.2-4.1-6.4-8.2-10.2-11.9C419.7,6.2,416.1,2.6,413.8,1z"/>
<path class="st1" d="M111.8,164c-15.8,0-28.6-13-28.6-28.6c0-16,13.1-28.7,28.7-28.8c15.6,0,29,13,28.8,29.2
	C140.4,151.1,127.8,164.2,111.8,164z"/>
<path class="st0" d="M0,268.4c21.9,0,43.7,0,65.6,0c-0.3,0.9-1,1.6-1.5,1.6c-15.4,0-30.8,0-46.3,0c-5.5,0-10.8,0-16.3,0
	C1.1,270,0.2,269.3,0,268.4z"/>
<path class="st0" d="M158.5,269c21.6,0,43.2,0,64.8,0c-0.2,0.6-0.5,1-0.9,1c-20.8,0-40.8,0-61.6,0C160.3,270,158.6,269.7,158.5,269z
	"/>
</svg>
